# xmcd
#
# Track frame offsets:
#	150
#	18182
#	34405
#	48670
#	64090
#	83538
#	101657
#	117347
#	134560
#	154912
#	174544
#	191208
#	209784
#	223034
#	240305
#	252447
#	267040
#	277488
#	294833
#
# Disc length: 4156 seconds
#
# Revision: 1
# Processed by: cddbd v1.4PL0 Copyright (c) Steve Scherf et al.
# Submitted via: EasyCDDAExtractor 6.2.0.3
#
DISCID=28103a13
DTITLE=Various Artist - Saloon Tunes 70
DYEAR=2004
DGENRE=Country
TTITLE0=Wilkinson, Amanda - Gone From Love Too Long
TTITLE1=Cryus, Billy Ray - Always Sixteen
TTITLE2=Carlson, Bobby - Paper Plates And Dixie Cups
TTITLE3=Brock, Chad - You Are
TTITLE4=Cross Canadian Ragweed - Constantly
TTITLE5=Worley, Darryl - I Will Hold My Ground
TTITLE6=Tuftin, Dean - In Her Eyes
TTITLE7=Ruttan, Deric - Unbeatable
TTITLE8=Chapman, Donovan - There Is No War
TTITLE9=Allan, Gary - Songs About Rain
TTITLE10=Matthews, Jake - Try Again Tomorrow
TTITLE11=McCoy, Jason - Still
TTITLE12=Nichols, Joe - Cool To Be A Fool
TTITLE13=Yrban, Keith - You'll Think Of Me
TTITLE14=Wills, Mark - That's A Woman
TTITLE15=McBridw, Martina - In My Daughter's Eyes
TTITLE16=Stuart, Marty - Too Much Month At The End Of The Money
TTITLE17=Howard, Rebecca Lynn - I Need A Vacation
TTITLE18=Lawrence, Tracy - Paint Me A Birmingham
EXTD=
EXTT0=
EXTT1=
EXTT2=
EXTT3=
EXTT4=
EXTT5=
EXTT6=
EXTT7=
EXTT8=
EXTT9=
EXTT10=
EXTT11=
EXTT12=
EXTT13=
EXTT14=
EXTT15=
EXTT16=
EXTT17=
EXTT18=
PLAYORDER=
